<svg width="39" height="36" viewBox="0 0 39 36" fill="none" xmlns="http://www.w3.org/2000/svg">
  <ellipse cx="19.4201" cy="18" rx="18.7033" ry="18" fill="#DADADA"/>
  <mask id="mask0" mask-type="alpha" maskUnits="userSpaceOnUse" x="0" y="0" width="39" height="36">
    <ellipse cx="19.4201" cy="18" rx="18.7033" ry="18" fill="white"/>
  </mask>
  <g mask="url(#mask0)">
    <path fill-rule="evenodd" clip-rule="evenodd" d="M14.2568 7.94402C13.2463 9.78765 10.9213 10.4668 8.88757 11.1844C6.85412 11.9017 4.61857 13.1916 4.46274 15.2707C4.3651 16.5781 5.15673 17.8415 5.02191 19.1462C4.74374 21.8391 1.09039 22.7447 -0.6033 24.9049C-1.82212 26.4598 -1.90699 28.6807 -1.06767 30.453C-0.228343 32.2254 1.42788 33.5617 3.28394 34.3383C7.11469 35.9402 11.7686 35.2095 15.1727 32.8804C18.5766 30.5516 20.7667 26.7928 21.5646 22.8471C22.3625 18.9017 21.8516 14.7853 20.6131 10.9464C20.153 9.52049 19.5042 8.01778 18.1673 7.26001C16.8306 6.50223 14.6771 7.02781 14.4336 8.50239L14.2568 7.94402Z" fill="#0A0F21"/>
    <path fill-rule="evenodd" clip-rule="evenodd" d="M13.375 11.6528C13.375 6.45956 17.3843 2.25 22.33 2.25C27.2757 2.25 31.2847 6.45956 31.2847 11.6528C31.2847 16.8458 27.2757 21.0553 22.33 21.0553C17.3843 21.0553 13.375 16.8458 13.375 11.6528Z" fill="#0A0F21"/>
    <path fill-rule="evenodd" clip-rule="evenodd" d="M15.851 9.94153C15.851 9.94153 13.9237 8.47433 13.9484 8.14844L13.375 8.37025L15.134 10.4748L15.851 9.94153Z" fill="#C4C4C4"/>
    <path fill-rule="evenodd" clip-rule="evenodd" d="M11.2773 36.2469C11.2773 36.2469 18.169 39.6688 21.9485 39.5853C25.8342 39.4994 34.2729 35.7389 34.2729 35.7389C34.2729 35.7389 32.6207 27.4842 23.6464 29.3101C23.6464 29.3101 15.269 27.2973 11.2773 36.2469Z" fill="#505D68"/>
    <path fill-rule="evenodd" clip-rule="evenodd" d="M27.2538 20.189L19.4415 21.4649L19.3694 30.6495C19.3694 30.6495 19.8179 33.0285 23.8573 33.0952C27.6699 33.158 27.9239 30.54 27.9239 30.54L27.2538 20.189L15.4766 28.519Z" fill="#DADADA"/>
    <path fill-rule="evenodd" clip-rule="evenodd" d="M19.3987 26.684L19.4398 21.4648L19.3987 26.684Z" fill="#0A0F21"/>
    <path fill-rule="evenodd" clip-rule="evenodd" d="M19.8012 26.6959C19.5466 26.6959 19.4018 26.6844 19.4004 26.6841L19.4415 21.4649L27.2538 20.189L27.4482 23.1947C24.8979 26.4205 21.043 26.6959 19.8012 26.6959Z" fill="#979797"/>
    <path fill-rule="evenodd" clip-rule="evenodd" d="M32.6588 15.9875C32.6588 16.7179 31.7354 17.7522 30.6756 17.4549C29.9469 17.2506 29.0137 16.7179 29.0137 15.9875C29.0137 15.2567 30.0772 14.5225 30.8362 14.5225C32.061 14.5225 32.6588 15.2567 32.6588 15.9875Z" fill="#DADADA"/>
    <path fill-rule="evenodd" clip-rule="evenodd" d="M31.2852 16.5292C31.2866 16.3697 31.3138 16.2126 31.368 16.0618C31.4259 15.9116 31.4864 15.7592 31.6598 15.6335C31.699 15.6037 31.77 15.5811 31.8321 15.5811C31.865 15.5841 31.9017 15.5865 31.93 15.5969C31.9564 15.6097 31.9831 15.6234 32.0075 15.6398C32.0538 15.6723 32.0774 15.7116 32.1109 15.7474C32.1546 15.8086 32.154 15.8605 32.1566 15.9048C32.1577 16.0801 32.1023 16.2274 32.0322 16.3724C32.0132 16.2164 32.0036 16.0566 31.9749 15.9261C31.9664 15.8957 31.9533 15.8682 31.9476 15.8676L31.8815 15.8157C31.8395 15.7903 31.8313 15.7996 31.7873 15.8228C31.699 15.8772 31.6124 16.0132 31.5338 16.1356C31.4563 16.2634 31.3734 16.3948 31.2852 16.5292Z" fill="#676767"/>
    <path fill-rule="evenodd" clip-rule="evenodd" d="M14.5215 15.9875C14.5215 16.7179 15.4451 17.7522 16.5047 17.4549C17.2336 17.2506 18.1666 16.7179 18.1666 15.9875C18.1666 15.2567 17.103 14.5225 16.344 14.5225C15.1193 14.5225 14.5215 15.2567 14.5215 15.9875Z" fill="#DADADA"/>
    <path fill-rule="evenodd" clip-rule="evenodd" d="M15.8968 16.5292C15.8088 16.3948 15.7259 16.2634 15.6484 16.1356C15.5695 16.0132 15.483 15.8772 15.3944 15.8228C15.351 15.7996 15.3427 15.7903 15.3007 15.8157L15.2343 15.8676C15.2286 15.8682 15.2156 15.8957 15.2071 15.9261C15.1784 16.0566 15.1687 16.2164 15.15 16.3724C15.0796 16.2274 15.0243 16.0801 15.0254 15.9048C15.0282 15.8605 15.0277 15.8086 15.0711 15.7474C15.1046 15.7116 15.1282 15.6723 15.1744 15.6398C15.1988 15.6234 15.2255 15.6097 15.2519 15.5969C15.2806 15.5865 15.3169 15.5841 15.3498 15.5811C15.412 15.5811 15.483 15.6037 15.5224 15.6335C15.6958 15.7592 15.756 15.9116 15.8139 16.0618C15.8684 16.2126 15.8954 16.3697 15.8968 16.5292Z" fill="#676767"/>
    <path fill-rule="evenodd" clip-rule="evenodd" d="M30.832 14.0849C30.9674 19.1864 28.4582 24.0625 24.1004 24.1698C19.7422 24.2769 16.595 19.9223 16.4596 14.8208C16.3242 9.71937 19.2515 5.80319 23.6093 5.69583C27.9675 5.58848 30.6963 8.98344 30.832 14.0849Z" fill="#DADADA"/>
    <path fill-rule="evenodd" clip-rule="evenodd" d="M21.1489 14.344C21.1418 14.6264 20.9596 14.8513 20.7425 14.8463C20.525 14.8412 20.3544 14.6081 20.3615 14.3257C20.3689 14.0432 20.5509 13.8184 20.7683 13.8233C20.9857 13.8285 21.156 14.0618 21.1489 14.344Z" fill="#172133"/>
    <path fill-rule="evenodd" clip-rule="evenodd" d="M26.8188 14.344C26.8117 14.6264 26.6298 14.8513 26.4121 14.8463C26.195 14.8412 26.0244 14.6081 26.0315 14.3257C26.0386 14.0432 26.2208 13.8184 26.4382 13.8233C26.6554 13.8285 26.8259 14.0618 26.8188 14.344Z" fill="#172133"/>
    <path fill-rule="evenodd" clip-rule="evenodd" d="M21.9473 17.0156C22.2237 17.3194 22.5059 17.5978 22.8141 17.8149C23.1232 18.0283 23.4587 18.172 23.7979 18.161C24.138 18.1643 24.4797 18.0165 24.8061 17.8196C25.132 17.6177 25.4371 17.3606 25.765 17.1052C25.5969 17.477 25.3585 17.8204 25.0375 18.1056C24.8771 18.249 24.6926 18.3714 24.4862 18.47C24.2771 18.5615 24.0432 18.6194 23.8025 18.6254C23.5621 18.6241 23.3219 18.5711 23.1119 18.4733C22.9038 18.3716 22.7176 18.2422 22.5666 18.0865C22.2609 17.78 22.0486 17.4112 21.9473 17.0156Z" fill="#292929"/>
    <path fill-rule="evenodd" clip-rule="evenodd" d="M23.3487 16.0564C23.4586 15.8955 23.5914 15.7696 23.7328 15.6562C23.8724 15.541 24.0234 15.4426 24.1818 15.3549L24.1727 15.7666C24.0356 15.6666 23.9357 15.5481 23.8582 15.4251C23.7822 15.3008 23.724 15.1757 23.684 15.0457C23.6008 14.7884 23.5667 14.5237 23.5988 14.2573C23.751 14.4797 23.8827 14.6941 24.022 14.8914C24.0958 14.9867 24.1594 15.0853 24.238 15.1634C24.3135 15.2432 24.3896 15.3137 24.4654 15.3607L24.7796 15.556L24.4563 15.7723C24.3067 15.8726 24.1498 15.9619 23.9817 16.0343C23.8148 16.1089 23.6397 16.1706 23.4418 16.1974C23.3896 16.2048 23.3414 16.1698 23.334 16.1195L23.3487 16.0564Z" fill="#C2D1D9"/>
    <path fill-rule="evenodd" clip-rule="evenodd" d="M27.4473 4.62025C25.8708 3.38633 22.9944 3.90946 22.9944 3.90946C20.3725 4.21459 17.9845 5.67496 16.7904 7.942C14.9531 11.4296 16.5174 15.1029 16.5174 15.1029C20.7256 13.636 23.3659 9.14887 24.4814 6.84249C24.9782 9.15952 26.4939 12.3015 30.8367 14.5224C30.8367 14.5224 32.0706 8.23866 27.4473 4.62025Z" fill="#0A0F21"/>
  </g>
</svg>
