<svg width="114" height="35" viewBox="0 0 114 35" fill="none" xmlns="http://www.w3.org/2000/svg">
<path d="M15.5984 12.6406L21.9969 0.875H30.0828L20.1453 17.7969L30.3406 35H22.1609L15.5984 23.0469L9.03594 35H0.856251L11.0516 17.7969L1.11406 0.875H9.2L15.5984 12.6406Z" fill="#E6447D"/>
<path d="M53.3688 27.9688H41.0406L38.6969 35H31.2203L43.9234 0.875H50.4391L63.2125 35H55.7359L53.3688 27.9688ZM42.9391 22.2734H51.4703L47.1813 9.5L42.9391 22.2734ZM73.6313 29.3516H88.5609V35H66.6V0.875H73.6313V29.3516ZM113.675 6.57031H103.222V35H96.1906V6.57031H85.8781V0.875H113.675V6.57031Z" fill="#333333"/>
</svg>
