<svg width="250" height="250" viewBox="0 0 250 250" fill="none" xmlns="http://www.w3.org/2000/svg">
<path d="M203.125 187.543H46.875C42.7323 187.539 38.7604 185.891 35.831 182.962C32.9017 180.033 31.2541 176.061 31.25 171.918V62.543C31.2541 58.4002 32.9017 54.4284 35.831 51.499C38.7604 48.5696 42.7323 46.9221 46.875 46.918H203.125C207.268 46.9221 211.24 48.5696 214.169 51.499C217.098 54.4284 218.746 58.4002 218.75 62.543V171.918C218.744 176.06 217.096 180.031 214.167 182.96C211.238 185.889 207.267 187.537 203.125 187.543ZM46.875 62.543V171.918H203.125V62.543H46.875Z" fill="#DADADA"/>
<path d="M15.625 203.168H234.375V218.793H15.625V203.168Z" fill="#DADADA"/>
</svg>
