<svg width="84" height="80" viewBox="0 0 84 80" fill="none" xmlns="http://www.w3.org/2000/svg">
<path d="M42.42 10.01C41.8444 9.98062 41.2671 10.0099 40.698 10.0975C36.9521 10.6775 34.125 13.9775 34.125 17.7675V22.5H23.9846C14.0674 22.5 5.94563 30.325 5.31037 40.175L5.25 40L2.625 52.5L6.05587 49.2325C6.55462 52.32 7.22925 55.565 7.95113 58.1075L11.0775 70H23.625V61.3825C25.5649 62.005 27.8959 62.5 30.1875 62.5C32.4144 62.4885 34.6268 62.1573 36.75 61.5175V70H49.3001L52.3504 58.325C52.437 58.0875 54.3375 52.81 54.9964 42.5H68.25C74.0407 42.5 78.75 38.015 78.75 32.5V27.055C78.75 21.43 74.5972 17.505 68.6543 17.505C65.268 17.505 62.6876 18.3525 60.9892 19.17C59.1412 17.325 55.6605 15 49.875 15H49.4235C48.9596 13.7518 48.1561 12.6432 47.0951 11.7875C45.7837 10.7242 44.1424 10.0998 42.4226 10.01H42.42ZM41.538 15.035C41.916 14.9724 42.3037 14.9891 42.6741 15.0841C43.0446 15.179 43.3888 15.3498 43.6828 15.5845C43.9768 15.8192 44.2134 16.1122 44.3761 16.4431C44.5389 16.7739 44.6238 17.1346 44.625 17.5V20H49.875C55.9072 20 57.96 23.5 58.0256 23.6175L59.5481 26.445L62.097 24.385C62.1915 24.3075 64.4726 22.505 68.6543 22.505C71.6888 22.505 73.5 24.205 73.5 27.055V32.5C73.5 35.2575 71.1454 37.5 68.25 37.5H49.98L49.8803 39.9C49.4235 50.955 47.4127 56.625 47.3261 56.895L45.2025 65H42V52.5L37.8 55.5C35.1356 57.4025 30.9907 57.5 30.1875 57.5C26.7435 57.5 23.1735 55.9 22.5802 55.5L18.375 52.4925V65H15.1751L13.0331 56.85C11.7075 52.18 10.5 44.8175 10.5 41.4075C10.5 33.7375 16.5506 27.5 23.9846 27.5H39.375V17.7675C39.375 16.4225 40.3226 15.225 41.538 15.035ZM52.5 22.5C51.8038 22.5 51.1361 22.7634 50.6438 23.2322C50.1516 23.7011 49.875 24.337 49.875 25C49.875 25.663 50.1516 26.2989 50.6438 26.7678C51.1361 27.2366 51.8038 27.5 52.5 27.5C53.1962 27.5 53.8639 27.2366 54.3562 26.7678C54.8484 26.2989 55.125 25.663 55.125 25C55.125 24.337 54.8484 23.7011 54.3562 23.2322C53.8639 22.7634 53.1962 22.5 52.5 22.5Z" fill="#0F6988"/>
</svg>
