<svg width="72" height="74" viewBox="0 0 72 74" fill="none" xmlns="http://www.w3.org/2000/svg">
<path fill-rule="evenodd" clip-rule="evenodd" d="M30.7875 7.36916C30.8624 7.02792 31.0479 6.723 31.3137 6.50448C31.5795 6.28596 31.9096 6.16683 32.25 6.16666H51C51.2137 6.16671 51.4249 6.21368 51.6194 6.30443C51.814 6.39518 51.9875 6.5276 52.1282 6.69284C52.269 6.85808 52.3738 7.05231 52.4355 7.26254C52.4973 7.47277 52.5147 7.69414 52.4865 7.91182C51.687 14.0739 48.1365 20.4918 44.9205 25.2556C43.2048 27.7897 41.3524 30.2232 39.372 32.5446L40.542 34.467C41.9931 36.854 42.7035 39.6381 42.579 42.4498L42.024 54.9604L44.3295 57.7231C45.2175 58.786 45.7201 60.1321 45.7519 61.5328C45.7836 62.9334 45.3426 64.3022 44.5037 65.4064C43.6648 66.5107 42.4798 67.2825 41.15 67.5906C39.8203 67.8986 38.4277 67.724 37.209 67.0964L37.119 67.0486C36.2479 66.6005 35.2589 66.455 34.3005 66.6339L28.2855 67.7593C28.0197 67.8088 27.7501 67.8336 27.48 67.8333H22.5C21.3065 67.8333 20.1619 67.3461 19.318 66.4787C18.4741 65.6113 18 64.435 18 63.2083V61.6667C18 61.2578 18.158 60.8657 18.4393 60.5765C18.7206 60.2874 19.1022 60.125 19.5 60.125H23.721L31.8585 56.9091L26.0775 39.7457C25.695 38.6096 25.4998 37.4159 25.5 36.2137V32.634C25.5 31.8339 25.587 31.0368 25.758 30.2567L30.7875 7.36916ZM36.408 31.3174L36.414 31.3128L36.4365 31.2866C36.5921 31.1129 36.7466 30.9382 36.9 30.7624C37.221 30.3924 37.686 29.8482 38.2485 29.1575C39.7318 27.3369 41.1352 25.4491 42.4545 23.4996C45.2775 19.3171 48.1305 14.1525 49.206 9.24999H33.45L28.686 30.9382C28.563 31.4951 28.5006 32.0644 28.5 32.6355V36.2153C28.5001 37.0732 28.6395 37.9251 28.9125 38.7359L35.1675 57.3084C35.2945 57.6861 35.2739 58.0998 35.1099 58.4622C34.9459 58.8246 34.6514 59.1073 34.2885 59.2509L24.5385 63.105C24.3667 63.1731 24.1841 63.2082 24 63.2083H21C21 63.6172 21.158 64.0093 21.4393 64.2985C21.7206 64.5876 22.1022 64.75 22.5 64.75H27.48C27.57 64.75 27.66 64.7423 27.747 64.7253L33.7635 63.5999C35.36 63.3021 37.0074 63.5444 38.4585 64.2906L38.5515 64.3368C39.1506 64.6448 39.8349 64.7302 40.4884 64.5786C41.1418 64.4269 41.724 64.0475 42.1361 63.5048C42.5483 62.962 42.765 62.2894 42.7495 61.6012C42.734 60.9129 42.4872 60.2513 42.051 59.7288L39.3615 56.5036C39.1131 56.206 38.9844 55.8223 39.0015 55.4306L39.582 42.311C39.679 40.1232 39.126 37.9568 37.9965 36.0997L36.228 33.1921C36.0524 32.903 35.9748 32.5624 36.0074 32.2232C36.04 31.8841 36.1808 31.5656 36.408 31.3174Z" fill="#0F6988"/>
</svg>
