<svg width="75" height="53" viewBox="0 0 75 53" fill="none" xmlns="http://www.w3.org/2000/svg">
<path fill-rule="evenodd" clip-rule="evenodd" d="M1.87499 29.6022C1.37771 29.6022 0.900803 29.8076 0.549173 30.1733C0.197544 30.539 0 31.0349 0 31.552V51.0502C0 51.5673 0.197544 52.0633 0.549173 52.4289C0.900803 52.7946 1.37771 53 1.87499 53H16.9743C19.5937 53 22.1962 52.5613 24.6805 51.6995L32.1805 49.1004H34.393C35.6242 49.1006 36.8435 48.8486 37.981 48.3589C39.1186 47.8691 40.1523 47.1511 41.023 46.2458L42.3036 44.9122L45.1367 43.7345C49.5097 41.9159 53.2824 38.8189 55.9986 34.818L63.1798 24.2383L72.2154 18.6014C72.4543 18.4521 72.6582 18.2494 72.8123 18.0079C72.9663 17.7664 73.0667 17.4922 73.106 17.2053L74.981 3.5566C75.0288 3.21039 74.986 2.8572 74.8574 2.53405C74.7287 2.2109 74.5189 1.92968 74.2498 1.71987L73.5448 1.17003C72.9483 0.704802 72.2689 0.367527 71.546 0.177812C70.8231 -0.0119025 70.0711 -0.050271 69.3338 0.0649374C68.5965 0.180146 67.8886 0.446632 67.2512 0.848901C66.6138 1.25117 66.0597 1.7812 65.6211 2.40816L64.8129 3.5644C64.5159 3.11538 64.16 2.71176 63.7554 2.36526L63.0673 1.77642C62.8756 1.6119 62.6544 1.48865 62.4165 1.41384C62.1786 1.33902 61.9288 1.31414 61.6816 1.34062C61.4344 1.36711 61.1947 1.44445 60.9765 1.56813C60.7582 1.69182 60.5658 1.85939 60.4104 2.06109L54.5548 9.67512C53.2249 11.4034 52.5002 13.5509 52.4998 15.7644V18.4746L45.2342 21.14C40.155 23.0043 35.8127 26.5655 32.8855 31.2674L29.3924 30.3588C27.4589 29.8562 25.4735 29.6021 23.4806 29.6022H1.87499ZM61.6929 8.02557L60.3579 9.93249C60.0655 10.3508 59.9449 10.8729 60.0226 11.3837C60.1003 11.8945 60.37 12.3523 60.7723 12.6564C61.1746 12.9605 61.6766 13.0859 62.1678 13.0051C62.659 12.9243 63.0993 12.6438 63.3917 12.2255L64.7248 10.3186L68.6529 4.70309C68.9257 4.31318 69.3277 4.04219 69.7813 3.94245C70.2349 3.8427 70.708 3.92127 71.1092 4.16299L69.5192 15.7332L60.9111 21.1069C60.6873 21.2458 60.4938 21.4318 60.3429 21.6528L52.9348 32.5679C50.6365 35.9538 47.4441 38.5747 43.7436 40.1137L40.5542 41.4395C40.3181 41.5377 40.1037 41.685 39.9243 41.8724L38.3718 43.4869C37.8495 44.0306 37.2293 44.4621 36.5466 44.7565C35.8639 45.0509 35.1321 45.2025 34.393 45.2027H31.8749C31.6737 45.2019 31.4736 45.2348 31.2824 45.3002L23.4956 48.0007C21.3927 48.7292 19.1908 49.1005 16.9743 49.1004H3.74999V33.5019H23.4806C25.168 33.5019 26.8462 33.7163 28.483 34.1414L33.2961 35.3932C33.6803 35.4929 34.0849 35.4636 34.452 35.3094C34.8192 35.1553 35.13 34.8843 35.3399 34.5353L35.8574 33.6773C38.3323 29.558 42.0786 26.4343 46.483 24.8174L54.9992 21.6918C55.3649 21.5575 55.6816 21.3085 55.9056 20.9792C56.1296 20.6499 56.2499 20.2565 56.2498 19.8531V15.7644C56.2497 14.4363 56.6841 13.1477 57.4817 12.1104L61.9629 6.28634C62.0524 6.57793 62.0745 6.88732 62.0276 7.18948C61.9807 7.49163 61.8661 7.77805 61.6929 8.02557Z" fill="#0F6988"/>
</svg>
