<svg width="73" height="73" viewBox="0 0 73 73" fill="none" xmlns="http://www.w3.org/2000/svg">
<g clip-path="url(#clip0)">
<path d="M59.4082 46.0209C58.7456 46.0209 58.208 45.484 58.208 44.8207V44.3641C58.208 42.9613 56.2065 41.5853 54.1672 41.5853H49.2606C48.598 41.5853 48.061 41.049 48.061 40.3858C48.061 39.7225 48.598 39.1855 49.2606 39.1855H54.1672C57.2137 39.1855 60.6077 41.3127 60.6077 44.3641V44.8207C60.6077 45.484 60.0708 46.0209 59.4082 46.0209Z" fill="#0A7ABF"/>
<path d="M54.6094 31.3854C54.5765 31.3854 54.5435 31.3847 54.5106 31.382C53.8493 31.3271 53.3577 30.7482 53.4127 30.0877L54.0128 22.7635C54.008 18.6293 50.811 15.1859 46.8815 15.1859H40.7362C36.8059 15.1859 33.609 18.6293 33.609 22.8617L34.2043 30.0877C34.2593 30.7482 33.7676 31.3271 33.1064 31.382C32.45 31.4362 31.8677 30.9453 31.8128 30.2841L31.2134 22.9598C31.2093 17.3062 35.4828 12.7861 40.7362 12.7861H46.8808C52.1348 12.7861 56.4084 17.3062 56.4084 22.8617L55.8042 30.2841C55.7527 30.911 55.2281 31.3854 54.6094 31.3854Z" fill="#0A7ABF"/>
<path d="M43.8087 42.7854C42.386 42.7854 40.9524 42.5568 39.6622 42.1235C39.0339 41.9127 38.6954 41.2316 38.9069 40.6033C39.1184 39.9757 39.7982 39.6393 40.4257 39.8473C41.4728 40.1989 42.6422 40.3856 43.808 40.3856C46.5278 40.3856 49.0442 39.401 50.3749 37.8156C52.189 35.6527 53.4077 32.5657 53.4077 30.135V25.2991C53.4077 24.6688 53.2787 24.2479 53.0246 24.0515C52.1203 23.3471 49.2468 24.0769 46.7118 24.7203C44.3944 25.3087 41.9995 25.9178 39.8291 25.9178C37.1286 25.9178 35.3104 24.9462 34.2221 24.2781C34.2138 24.5466 34.209 24.881 34.209 25.2991V30.135C34.209 31.8859 34.8613 34.0646 35.9544 35.9624C36.2854 36.5371 36.0876 37.2704 35.5136 37.6007C34.9389 37.9323 34.2056 37.7353 33.8746 37.1599C32.5618 34.8796 31.8086 32.3192 31.8086 30.135V25.2991C31.8086 23.2585 31.8546 22.0789 32.8042 21.555C33.6508 21.0805 34.4521 21.59 35.1579 22.0329C36.0959 22.6247 37.5138 23.518 39.8291 23.518C41.6987 23.518 43.9467 22.9461 46.1206 22.394C49.6341 21.5021 52.6655 20.7303 54.4981 22.1565C55.3674 22.8321 55.8075 23.8895 55.8075 25.2991V30.135C55.8075 33.1342 54.3972 36.7534 52.213 39.3578C50.4127 41.5042 47.27 42.7854 43.8087 42.7854Z" fill="#0A7ABF"/>
<path d="M54.7589 57.6488C54.2103 57.6488 53.7145 57.2691 53.5896 56.7115C53.4447 56.0647 53.8519 55.4227 54.4987 55.2786L68.7393 52.0899C69.268 51.9965 69.6813 51.7335 69.9573 51.3401C70.2333 50.9466 70.3398 50.4694 70.2567 49.9957C70.1468 49.3667 69.7053 48.838 69.1066 48.6155C68.4845 48.3855 68.1673 47.6955 68.398 47.0734C68.6287 46.452 69.3215 46.132 69.9395 46.3655C71.3361 46.8825 72.3639 48.115 72.6207 49.5809C72.8151 50.6864 72.5665 51.8001 71.9218 52.7181C71.2777 53.6368 70.3137 54.2486 69.2082 54.4429L55.0226 57.6199C54.9347 57.6392 54.8461 57.6488 54.7589 57.6488Z" fill="#0A7ABF"/>
<path d="M38.5245 64.3843H29.4089C29.3217 64.3843 29.2345 64.3754 29.1487 64.3562L18.3494 61.9564C17.7026 61.8123 17.2941 61.1709 17.4383 60.5248C17.5818 59.878 18.2217 59.4743 18.8692 59.613L29.5407 61.9846H38.5245C43.2073 61.9846 47.8008 60.3731 51.4585 57.4474C51.4907 57.4213 51.5244 57.3979 51.5587 57.376L69.3196 45.9553C69.3773 45.9176 69.4377 45.886 69.5002 45.8592C69.9431 45.6718 70.2857 45.3223 70.4663 44.8773C70.6469 44.431 70.6421 43.9408 70.4546 43.4993C70.0667 42.5847 69.0079 42.1569 68.0947 42.5449L50.2658 49.8952C50.1209 49.9549 49.965 49.9851 49.8085 49.9851H27.0091C26.5766 49.9851 26.1776 49.7531 25.9648 49.3768C25.7519 48.9998 25.7581 48.5377 25.9806 48.1676L29.5805 42.1679C29.7968 41.8074 30.1875 41.5857 30.6091 41.5857H35.4093C37.6415 41.5857 39.5229 40.0545 40.0571 37.9857H27.4019L11.0328 49.9906C10.4972 50.3827 9.74809 50.2646 9.35534 49.7325C8.96396 49.1983 9.07931 48.4471 9.61351 48.0544L26.2999 35.818C26.5052 35.667 26.7537 35.5859 27.0091 35.5859H41.4083C42.0709 35.5859 42.6086 36.1229 42.6086 36.7862C42.6086 40.7562 39.3787 43.9861 35.4086 43.9861H31.2889L29.1287 47.5861H49.5709L67.1691 40.3312C69.2901 39.4297 71.7599 40.4308 72.6642 42.562C73.1022 43.5947 73.1125 44.7359 72.6916 45.7768C72.2851 46.7834 71.523 47.5778 70.5397 48.0255L52.9093 59.3617C48.8349 62.6005 43.7298 64.3843 38.5245 64.3843Z" fill="#0A7ABF"/>
<path d="M12.9833 71.1752C12.9195 71.1752 12.8549 71.1704 12.7911 71.1601C12.4766 71.1086 12.1958 70.9349 12.0097 70.6774L0.227198 54.3323C0.0404358 54.0749 -0.0357796 53.7521 0.0157173 53.4384C0.0665274 53.1246 0.240244 52.8437 0.498415 52.657L8.28474 47.0438C8.82374 46.6607 9.57285 46.7788 9.9601 47.3157L21.7426 63.6595C22.1305 64.1971 22.009 64.9469 21.4714 65.3348L13.685 70.9493C13.4797 71.097 13.2332 71.1752 12.9833 71.1752ZM2.87551 53.9025L13.2552 68.2997L19.095 64.0893L8.71525 49.6921L2.87551 53.9025Z" fill="#0A7ABF"/>
<path d="M16.2092 63.1851C16.2092 64.5103 15.1346 65.5849 13.8094 65.5849C12.4842 65.5849 11.4097 64.5103 11.4097 63.1851C11.4097 61.8592 12.4842 60.7847 13.8094 60.7847C15.1346 60.7847 16.2092 61.8592 16.2092 63.1851Z" fill="#0A7ABF"/>
<path d="M43.8086 9.18608C43.1453 9.18608 42.6084 8.64982 42.6084 7.98654V3.18635C42.6084 2.52307 43.1453 1.98682 43.8086 1.98682C44.4712 1.98682 45.0082 2.52307 45.0082 3.18635V7.98654C45.0082 8.64982 44.4712 9.18608 43.8086 9.18608Z" fill="#0A7ABF"/>
<path d="M48.6082 9.18592C48.3012 9.18592 47.9943 9.06919 47.7602 8.83437C47.2912 8.36609 47.2912 7.60668 47.7602 7.13772L51.9596 2.93763C52.4285 2.46936 53.1879 2.46936 53.6562 2.93763C54.1252 3.4066 54.1252 4.16601 53.6562 4.63497L49.4568 8.83437C49.222 9.06919 48.9158 9.18592 48.6082 9.18592Z" fill="#0A7ABF"/>
<path d="M39.0084 9.18591C38.7015 9.18591 38.3946 9.06918 38.1604 8.83435L34.5605 5.23438C34.0915 4.7661 34.0915 4.0067 34.5605 3.53773C35.0287 3.06945 35.7882 3.06945 36.2571 3.53773L39.8571 7.13771C40.3254 7.60667 40.3254 8.36608 39.8571 8.83435C39.6223 9.06918 39.3154 9.18591 39.0084 9.18591Z" fill="#0A7ABF"/>
</g>
<defs>
<clipPath id="clip0">
<rect width="73" height="73" fill="white"/>
</clipPath>
</defs>
</svg>
