<svg width="71" height="71" viewBox="0 0 71 71" fill="none" xmlns="http://www.w3.org/2000/svg">
<g clip-path="url(#clip0)">
<path d="M25.1995 50.867C25.0992 50.8384 24.9966 50.8224 24.8933 50.8168C26.4123 49.2203 27.3478 47.0635 27.3478 44.6911V37.3954C27.3478 37.3287 27.3414 37.2637 27.3324 37.1996C27.3415 37.0679 27.3478 36.9353 27.3478 36.8014V32.1855C27.3478 31.4197 26.7269 30.7988 25.961 30.7988H16.6599C12.7431 30.7988 9.55671 33.9854 9.55671 37.902V44.6911C9.55671 47.0635 10.4921 49.2203 12.0112 50.8168C11.908 50.8224 11.8054 50.8384 11.7053 50.867C5.15208 51.4604 0 56.9838 0 63.6889V69.6135C0 70.3794 0.620834 71.0002 1.38672 71.0002H35.5176C36.2835 71.0002 36.9043 70.3794 36.9043 69.6135V63.6889C36.9043 56.984 31.7525 51.4605 25.1995 50.867ZM12.3301 39.6605V37.9019C12.3301 35.5145 14.2725 33.5721 16.6599 33.5721H24.5743V36.8012C24.5743 38.4269 23.2518 39.7494 21.6262 39.7494H12.3301V39.6605ZM12.3301 42.5228H21.6262C22.7039 42.5228 23.7128 42.223 24.5743 41.7027V44.691C24.5743 48.0667 21.8279 50.8131 18.4522 50.8131C15.0765 50.8131 12.3301 48.0667 12.3301 44.691V42.5228ZM21.4704 53.5866L18.4522 56.605L15.434 53.5866H21.4704ZM34.131 68.2268H2.77344V65.4534H8.52832C9.2942 65.4534 9.91504 64.8325 9.91504 64.0666C9.91504 63.3007 9.2942 62.6799 8.52832 62.6799H2.82405C3.28985 58.0044 6.95731 54.2602 11.5957 53.6705L17.4717 59.5465C17.7317 59.8065 18.0845 59.9527 18.4522 59.9527C18.82 59.9527 19.1728 59.8065 19.4328 59.5465L25.3087 53.6705C30.2765 54.3019 34.131 58.5523 34.131 63.6889V68.2268Z" fill="#0A7ABF"/>
<path d="M59.2953 20.0683C59.1951 20.0398 59.0923 20.0237 58.9889 20.0181C60.5079 18.4216 61.4432 16.2648 61.4432 13.8924V6.59662C61.4432 6.52992 61.4368 6.46488 61.4278 6.40082C61.437 6.26908 61.4432 6.13651 61.4432 6.00255V1.38672C61.4432 0.620834 60.8224 0 60.0565 0H50.7554C46.8386 0 43.6522 3.18654 43.6522 7.10319V13.8923C43.6522 16.2647 44.5875 18.4214 46.1065 20.018C46.0032 20.0235 45.9003 20.0396 45.8001 20.0682C39.2471 20.6618 34.0955 26.1853 34.0955 32.8901V38.8145C34.0955 39.5804 34.7163 40.2013 35.4822 40.2013H46.6397C47.4056 40.2013 48.0264 39.5804 48.0264 38.8145C48.0264 38.0487 47.4056 37.4278 46.6397 37.4278H36.8689V32.8902C36.8689 27.7536 40.7233 23.5032 45.6911 22.8718L51.567 28.7478C51.8378 29.0186 52.1927 29.154 52.5476 29.154C52.9024 29.154 53.2574 29.0186 53.5281 28.7478L59.404 22.8718C64.3721 23.5034 68.2265 27.7536 68.2265 32.8902V37.428H58.0109C57.2451 37.428 56.6242 38.0488 56.6242 38.8147C56.6242 39.5806 57.2451 40.2014 58.0109 40.2014H69.6132C70.3791 40.2014 70.9999 39.5806 70.9999 38.8147V32.8902C70.9999 26.1854 65.8481 20.662 59.2953 20.0683ZM52.5478 25.8061L49.5296 22.7879H55.566L52.5478 25.8061ZM58.6699 13.8923C58.6699 17.268 55.9235 20.0144 52.5478 20.0144C49.1721 20.0144 46.4257 17.2681 46.4257 13.8924V11.7242H55.7218C56.7995 11.7242 57.8083 11.4242 58.6699 10.904V13.8923ZM58.6699 6.00255C58.6699 7.6282 57.3474 8.95071 55.7218 8.95071H46.4257V8.86183V7.10319C46.4257 4.71581 48.3681 2.77344 50.7555 2.77344H58.6699V6.00255Z" fill="#0A7ABF"/>
<path d="M53.5288 37.834C53.2708 37.5761 52.913 37.4277 52.5483 37.4277C52.1822 37.4277 51.8259 37.5761 51.5679 37.834C51.3086 38.092 51.1616 38.4497 51.1616 38.8145C51.1616 39.1805 51.3086 39.5369 51.5679 39.7949C51.8259 40.0542 52.1822 40.2012 52.5483 40.2012C52.913 40.2012 53.2708 40.0542 53.5288 39.7949C53.7867 39.5369 53.9351 39.1805 53.9351 38.8145C53.9351 38.4497 53.7867 38.092 53.5288 37.834Z" fill="#0A7ABF"/>
<path d="M37.0816 19.4042L31.2822 13.6048V6.93359C31.2822 3.11041 28.1717 0 24.3486 0H6.93359C3.11041 0 0 3.11041 0 6.93359V19.1367C0 22.9599 3.11041 26.0703 6.93359 26.0703H24.3484C27.2153 26.0703 29.7153 24.3498 30.7642 21.7715H36.1009C36.6617 21.7715 37.1674 21.4335 37.3821 20.9155C37.5967 20.3974 37.478 19.8008 37.0816 19.4042ZM29.7526 18.998C29.1065 18.998 28.546 19.4442 28.4011 20.0739C27.9646 21.9714 26.2981 23.2969 24.3484 23.2969H6.93359C4.63968 23.2969 2.77344 21.4306 2.77344 19.1367V6.93359C2.77344 4.63968 4.63968 2.77344 6.93359 2.77344H24.3484C26.6423 2.77344 28.5086 4.63968 28.5086 6.93359V14.1792C28.5086 14.547 28.6547 14.8997 28.9147 15.1597L32.753 18.998H29.7526Z" fill="#0A7ABF"/>
<path d="M64.0665 44.9297H46.6517C43.7848 44.9297 41.2848 46.6502 40.2359 49.2285H34.8992C34.3385 49.2285 33.8327 49.5665 33.6181 50.0845C33.4034 50.6026 33.5221 51.1992 33.9186 51.5958L39.718 57.3952V64.0664C39.718 67.8896 42.8284 71 46.6515 71H64.0665C67.8897 71 71.0001 67.8896 71.0001 64.0664V51.8633C71.0001 48.0401 67.8897 44.9297 64.0665 44.9297ZM68.2267 64.0664C68.2267 66.3603 66.3604 68.2266 64.0665 68.2266H46.6517C44.3578 68.2266 42.4915 66.3603 42.4915 64.0664V56.8208C42.4915 56.453 42.3454 56.1003 42.0854 55.8403L38.2471 52.002H41.2475C41.8936 52.002 42.4541 51.5558 42.599 50.9261C43.0355 49.0286 44.702 47.7031 46.6517 47.7031H64.0665C66.3604 47.7031 68.2267 49.5694 68.2267 51.8633V64.0664Z" fill="#0A7ABF"/>
<path d="M61.592 54.2753C61.0507 53.7338 60.1726 53.7338 59.6311 54.2753L55.9448 57.9616L54.2306 56.2475C53.6891 55.706 52.8111 55.706 52.2694 56.2475C51.7279 56.789 51.7279 57.6671 52.2694 58.2087L54.9641 60.9034C55.2349 61.1742 55.5898 61.3096 55.9446 61.3096C56.2995 61.3096 56.6545 61.1742 56.9252 60.9034L61.592 56.2365C62.1335 55.695 62.1335 54.8169 61.592 54.2753Z" fill="#0A7ABF"/>
<path d="M21.9453 9.18952C21.7814 6.81171 19.8647 4.89499 17.4869 4.73108C16.1386 4.63831 14.8534 5.09315 13.8688 6.01227C12.898 6.91849 12.3411 8.19982 12.3411 9.52746C12.3412 10.2935 12.962 10.9143 13.7279 10.9143C14.4938 10.9143 15.1146 10.2935 15.1146 9.5276C15.1146 8.95752 15.3443 8.42918 15.7614 8.03979C16.1778 7.65095 16.7235 7.45792 17.2964 7.49814C18.3002 7.56733 19.1094 8.37648 19.1786 9.38033C19.2486 10.3953 18.5832 11.2922 17.5966 11.513C16.5166 11.7545 15.7624 12.6935 15.7624 13.7962V14.536C15.7624 15.3019 16.3832 15.9227 17.1491 15.9227C17.915 15.9227 18.5358 15.3019 18.5358 14.536V14.1325C20.6844 13.4915 22.1023 11.466 21.9453 9.18952Z" fill="#0A7ABF"/>
<path d="M18.1301 18.8624C17.8721 18.6044 17.5144 18.4561 17.1497 18.4561C16.7836 18.4561 16.4272 18.6044 16.1692 18.8624C15.9099 19.1203 15.7629 19.4781 15.7629 19.8428C15.7629 20.2075 15.9099 20.5653 16.1692 20.8232C16.4272 21.0811 16.7836 21.2295 17.1497 21.2295C17.5144 21.2295 17.8721 21.0811 18.1301 20.8232C18.388 20.5653 18.5364 20.2075 18.5364 19.8428C18.5364 19.4781 18.388 19.1203 18.1301 18.8624Z" fill="#0A7ABF"/>
<path d="M15.0556 63.086C14.7977 62.8281 14.4399 62.6797 14.0752 62.6797C13.7105 62.6797 13.3527 62.8281 13.0948 63.086C12.8369 63.3439 12.6885 63.7017 12.6885 64.0664C12.6885 64.4311 12.8369 64.7889 13.0948 65.0468C13.3527 65.3047 13.7105 65.4531 14.0752 65.4531C14.4399 65.4531 14.7977 65.3047 15.0556 65.0468C15.3135 64.7889 15.4619 64.4311 15.4619 64.0664C15.4619 63.7017 15.3135 63.3439 15.0556 63.086Z" fill="#0A7ABF"/>
</g>
<defs>
<clipPath id="clip0">
<rect width="71" height="71" fill="white"/>
</clipPath>
</defs>
</svg>
