<svg width="72" height="72" viewBox="0 0 72 72" fill="none" xmlns="http://www.w3.org/2000/svg">
<path d="M36 0C55.8844 0 72 16.1156 72 36C72 55.8844 55.8844 72 36 72C16.1156 72 0 55.8844 0 36C0.0281219 16.1297 16.1297 0.028125 36 0ZM36 69.5953C54.5625 69.5953 69.5953 54.5625 69.5953 36C69.5953 17.4375 54.5625 2.40469 36 2.40469C17.4375 2.40469 2.40469 17.4375 2.40469 36C2.41875 54.5484 17.4516 69.5812 36 69.5953Z" fill="#0A7ABF"/>
<path d="M43.2 29.9952C43.2 29.3342 43.7344 28.7999 44.3954 28.7999H49.1907C49.8375 28.828 50.3719 29.3483 50.386 29.9952V34.7905C50.386 35.4514 49.8516 35.9858 49.1907 35.9858C48.5297 35.9858 47.9954 35.4514 47.9954 34.7905V33.103C46.2375 34.6077 44.1844 35.7045 41.9625 36.3514C41.7797 39.5155 39.1782 41.9764 36.0141 41.9905C32.85 42.0046 30.2344 39.5436 30.0375 36.3795C25.9313 35.3671 21.1641 33.2155 18.3516 28.7295L17.9579 30.2905C17.8172 30.8249 17.3391 31.2045 16.7907 31.2045C16.6922 31.2045 16.5938 31.1905 16.4954 31.1624C15.8485 31.0077 15.4688 30.3467 15.6235 29.6999L16.8188 24.9045C16.9875 24.2717 17.6344 23.878 18.2813 24.0327L23.0766 25.228C23.4985 25.3264 23.8219 25.6499 23.9485 26.0577C24.061 26.4655 23.9625 26.9155 23.6532 27.2249C23.3579 27.5342 22.9079 27.6608 22.486 27.5483L20.0532 26.9436C22.3454 31.0499 26.6204 33.0186 30.3469 33.9749C31.1907 31.5842 33.4266 29.9952 35.9579 29.9811C38.4891 29.967 40.7391 31.5561 41.5969 33.9327C43.411 33.3702 45.0844 32.428 46.5188 31.1764H44.3813C43.7344 31.2045 43.2 30.6561 43.2 29.9952ZM36 32.3999C34.0172 32.3999 32.4 34.017 32.4 35.9999C32.4 37.9827 34.0172 39.5999 36 39.5999C37.9829 39.5999 39.6 37.9827 39.6 35.9999C39.6 34.017 37.9829 32.3999 36 32.3999Z" fill="#0A7ABF"/>
<path d="M46.8841 47.5455C47.1372 46.9267 47.8262 46.6314 48.445 46.8845C49.0637 47.1377 49.3591 47.8267 49.1059 48.4455C48.9934 48.7127 46.2794 55.1955 35.9856 55.1955C35.3247 55.1955 34.7903 54.6611 34.7903 54.0002C34.7903 53.3392 35.3247 52.8049 35.9856 52.8049C44.5778 52.8049 46.7856 47.7705 46.8841 47.5455Z" fill="#0A7ABF"/>
<path d="M38.4048 22.7953V18C38.4048 17.3391 38.9392 16.8047 39.6001 16.8047C40.261 16.8047 40.7954 17.3391 40.7954 18V22.7953C40.7954 23.4563 40.261 23.9906 39.6001 23.9906C38.9392 23.9906 38.4048 23.4563 38.4048 22.7953Z" fill="#0A7ABF"/>
<path d="M31.2046 22.7953V18C31.2046 17.3391 31.739 16.8047 32.3999 16.8047C33.0608 16.8047 33.5952 17.3391 33.5952 18V22.7953C33.5952 23.4563 33.0608 23.9906 32.3999 23.9906C31.739 23.9906 31.2046 23.4563 31.2046 22.7953Z" fill="#0A7ABF"/>
<path d="M10.069 20.9388C12.6987 16.4388 16.4394 12.6841 20.9394 10.0685C20.9534 10.0544 20.9675 10.0263 20.9956 10.0263C21.0237 10.0263 21.0378 10.0122 21.0659 9.99815C30.2909 4.68253 41.6534 4.66846 50.8784 9.98409C50.9206 9.99815 50.9628 10.0122 51.005 10.0263C51.0472 10.0544 51.0753 10.0825 51.1034 10.1107C52.2144 10.7575 53.2831 11.4747 54.3097 12.2482C54.83 12.656 54.9284 13.4153 54.5206 13.9357C54.1128 14.456 53.3534 14.5544 52.8331 14.1466C52.1862 13.6403 51.5112 13.1763 50.8222 12.7263L49.6409 14.7653C49.43 15.145 49.0362 15.37 48.6003 15.37C48.1644 15.37 47.7706 15.145 47.5597 14.7653C47.3487 14.3857 47.3487 13.9357 47.5597 13.556L48.7409 11.531C45.169 9.66065 41.2315 8.60596 37.1956 8.45128V10.7997C37.1956 11.4607 36.6612 11.995 36.0003 11.995C35.3394 11.995 34.805 11.4607 34.805 10.7997V8.42315C30.7831 8.5919 26.8315 9.64659 23.2597 11.5169L24.4409 13.556C24.6519 13.9216 24.6659 14.3857 24.4409 14.7653C24.23 15.145 23.8222 15.37 23.4003 15.37C22.9784 15.37 22.5706 15.131 22.3597 14.7653L21.1784 12.7263C17.7894 14.8919 14.9065 17.7747 12.7269 21.1778L14.7659 22.3591C15.1456 22.57 15.3706 22.9638 15.3706 23.3997C15.3706 23.8357 15.1456 24.2294 14.7659 24.4403C14.3862 24.6513 13.9362 24.6513 13.5565 24.4403L11.5175 23.2591C9.64716 26.831 8.59248 30.7685 8.42373 34.8044H10.8003C11.4612 34.8044 11.9956 35.3388 11.9956 35.9997C11.9956 36.6607 11.4612 37.195 10.8003 37.195H8.42373C8.59248 41.2169 9.64716 45.1685 11.5175 48.7403L13.5565 47.5591C13.9222 47.3482 14.3862 47.3341 14.7659 47.5591C15.1456 47.77 15.3706 48.1778 15.3706 48.5997C15.3706 49.0216 15.1315 49.4294 14.7659 49.6403L12.7269 50.8216C14.8925 54.2107 17.7753 57.0935 21.1784 59.2732L22.3597 57.2341C22.5706 56.8544 22.9644 56.6294 23.4003 56.6294C23.8362 56.6294 24.23 56.8544 24.4409 57.2341C24.6519 57.6138 24.6519 58.0638 24.4409 58.4435L23.2597 60.4825C26.8315 62.3528 30.769 63.4075 34.805 63.5763V61.1997C34.805 60.5388 35.3394 60.0044 36.0003 60.0044C36.6612 60.0044 37.1956 60.5388 37.1956 61.1997V63.5763C41.2175 63.4075 45.169 62.3528 48.7409 60.4825L47.5597 58.4435C47.3487 58.0778 47.3347 57.6138 47.5597 57.2341C47.7706 56.8544 48.1784 56.6294 48.6003 56.6294C49.0222 56.6294 49.43 56.8685 49.6409 57.2341L50.8222 59.2732C54.2112 57.1075 57.094 54.2247 59.2737 50.8216L57.2347 49.6403C56.855 49.4294 56.63 49.0357 56.63 48.5997C56.63 48.1638 56.855 47.77 57.2347 47.5591C57.6144 47.3482 58.0644 47.3482 58.444 47.5591L60.469 48.7403C62.3394 45.1685 63.394 41.231 63.5769 37.195H61.2003C60.5394 37.195 60.005 36.6607 60.005 35.9997C60.005 35.3388 60.5394 34.8044 61.2003 34.8044H63.5487C63.3659 30.7825 62.3112 26.845 60.455 23.2732L58.43 24.4403C58.0644 24.6513 57.6003 24.6653 57.2206 24.4403C56.8409 24.2294 56.6159 23.8216 56.6159 23.3997C56.6159 22.9778 56.855 22.57 57.2206 22.3591L59.2456 21.1919C58.7112 20.3482 58.1347 19.5325 57.5159 18.7591C57.2487 18.4216 57.1784 17.9716 57.3331 17.5778C57.4878 17.1841 57.8394 16.8888 58.2753 16.8325C58.6972 16.7622 59.119 16.931 59.4003 17.2685C60.3144 18.4075 61.13 19.6169 61.8612 20.8825C61.9034 20.9247 61.9456 20.9669 61.9878 21.0091C62.0019 21.0513 62.0159 21.0935 62.03 21.1357C67.3315 30.3607 67.3315 41.7091 62.0159 50.9341C62.0019 50.9622 62.0019 50.9763 61.9878 51.0044C61.9737 51.0325 61.9456 51.0606 61.9175 51.0888C59.2878 55.5747 55.5472 59.3153 51.0612 61.931C51.0472 61.945 51.0331 61.9732 51.005 61.9732C50.9769 61.9872 50.9347 62.0013 50.9065 62.0153C41.6815 67.3169 30.3331 67.3169 21.1222 62.0153C21.094 62.0013 21.0519 61.9872 21.0237 61.9732C20.9956 61.9591 20.9956 61.945 20.9675 61.931C16.4675 59.3153 12.7269 55.5747 10.1112 51.0888C10.0972 51.0606 10.069 51.0325 10.0409 51.0044C10.0269 50.9763 10.0269 50.9622 10.0128 50.9341C4.68311 41.695 4.68311 30.3185 10.0128 21.0794C10.0269 21.0513 10.0269 21.0372 10.0409 21.0091C10.0409 20.981 10.055 20.9669 10.069 20.9388Z" fill="#0A7ABF"/>
</svg>
