<svg width="62" height="62" viewBox="0 0 62 62" fill="none" xmlns="http://www.w3.org/2000/svg">
<g clip-path="url(#clip0)">
<path d="M5.49729 29.2996L39.1458 11.2106L38.4469 14.0758C38.328 14.5631 38.6267 15.0545 39.114 15.1733C39.598 15.2916 40.092 14.9965 40.2115 14.5062L41.3935 9.66063C41.5129 9.17274 41.2081 8.68062 40.7264 8.56316L35.8808 7.38116C35.3934 7.26201 34.9021 7.56086 34.7833 8.04827C34.6644 8.53555 34.9631 9.02695 35.4504 9.14574L37.9957 9.76659L4.63728 27.6997C4.19553 27.9372 4.02988 28.4879 4.26734 28.9297C4.50602 29.3737 5.05784 29.536 5.49729 29.2996Z" fill="#0A7ABF"/>
<path d="M58.7422 52.9824H56.4812V17.6277C56.4812 16.4233 55.5013 15.4434 54.2969 15.4434H50.6226V10.6743H58.3763C58.9417 10.6743 59.4413 10.356 59.6802 9.84362C59.9191 9.33128 59.8416 8.74385 59.4782 8.31082L58.0321 6.58814L59.4782 4.86546C59.8416 4.43243 59.9191 3.845 59.6802 3.33266C59.4413 2.82031 58.9417 2.50195 58.3763 2.50195H49.7144C49.2129 2.50195 48.8062 2.90859 48.8062 3.41016V15.4432H45.132C43.9276 15.4432 42.9477 16.4231 42.9477 17.6275V19.597C42.9477 20.0986 43.3543 20.5052 43.8559 20.5052C44.3575 20.5052 44.7641 20.0986 44.7641 19.597V17.6277C44.7641 17.4248 44.9292 17.2598 45.132 17.2598H54.2969C54.4997 17.2598 54.6647 17.4248 54.6647 17.6277V52.9824H44.7642V23.8656C44.7642 23.364 44.3576 22.9573 43.856 22.9573C43.3545 22.9573 42.9478 23.364 42.9478 23.8656V52.9824H37.7667V30.3338C37.7667 29.1294 36.7868 28.1495 35.5824 28.1495H26.4176C25.2132 28.1495 24.2333 29.1294 24.2333 30.3338V52.9824H19.0522V41.4847C19.0522 40.2803 18.0723 39.3004 16.8679 39.3004H7.70314C6.49874 39.3004 5.51885 40.2803 5.51885 41.4847V43.4727C5.51885 43.9743 5.92548 44.3809 6.42705 44.3809C6.92862 44.3809 7.33525 43.9743 7.33525 43.4727V41.4847C7.33525 41.2819 7.5003 41.1168 7.70314 41.1168H16.868C17.0708 41.1168 17.2359 41.2819 17.2359 41.4847V52.9824H7.33525V47.7008C7.33525 47.1992 6.92862 46.7926 6.42705 46.7926C5.92548 46.7926 5.51885 47.1992 5.51885 47.7008V52.9824H3.25779C1.46136 52.9824 0 54.4439 0 56.2403C0 58.0367 1.46136 59.4981 3.25779 59.4981H58.7422C60.5385 59.4981 62 58.0367 62 56.2403C62 54.4439 60.5386 52.9824 58.7422 52.9824ZM56.437 7.51318L57.5658 8.85792H50.6226V4.31848H57.5659L56.437 5.66335C55.987 6.19931 55.9871 6.97733 56.437 7.51318ZM26.0498 30.3338C26.0498 30.1309 26.2149 29.9659 26.4177 29.9659H35.5826C35.7854 29.9659 35.9504 30.1309 35.9504 30.3338V52.9824H26.0499V30.3338H26.0498ZM58.7422 57.6816H3.25779C2.46305 57.6816 1.81641 57.0351 1.81641 56.2402C1.81641 55.4453 2.46293 54.7988 3.25779 54.7988H58.7422C59.537 54.7988 60.1836 55.4455 60.1836 56.2402C60.1836 57.0349 59.5371 57.6816 58.7422 57.6816Z" fill="#0A7ABF"/>
</g>
<defs>
<clipPath id="clip0">
<rect width="62" height="62" fill="white"/>
</clipPath>
</defs>
</svg>
