<svg width="54" height="54" viewBox="0 0 54 54" fill="none" xmlns="http://www.w3.org/2000/svg">
<path d="M54 11.6016C54 10.1445 53.0096 8.91496 51.6669 8.54898C51.8108 8.18786 51.8906 7.79467 51.8906 7.38281C51.8906 5.92576 50.9003 4.69621 49.5576 4.33023C49.7014 3.96911 49.7812 3.57592 49.7812 3.16406C49.7812 1.4194 48.3619 0 46.6172 0H35.2477C32.8857 0 30.4993 0.562992 28.3423 1.63013L27.3838 2.10938H15.8203C15.4086 2.10938 15.0153 2.18932 14.6541 2.33307C14.2882 0.990352 13.0586 0 11.6016 0C10.1445 0 8.91496 0.990352 8.54898 2.33307C8.18786 2.18932 7.79456 2.10938 7.38281 2.10938C5.92576 2.10938 4.69621 3.09973 4.33023 4.44245C3.96911 4.2987 3.57581 4.21875 3.16406 4.21875C1.4194 4.21875 0 5.63815 0 7.38281V18.7523C0 23.198 1.91278 26.1033 2.10938 26.6162V38.1797C2.10938 38.5914 2.18932 38.9847 2.33307 39.3459C0.990352 39.7118 0 40.9414 0 42.3984C0 43.8555 0.990352 45.085 2.33307 45.451C2.18932 45.8121 2.10938 46.2054 2.10938 46.6172C2.10938 48.0742 3.09973 49.3038 4.44245 49.6698C4.2987 50.0309 4.21875 50.4242 4.21875 50.8359C4.21875 52.5806 5.63815 54 7.38281 54H9.9245C10.507 54 10.9792 53.5278 10.9792 52.9453C10.9792 52.3628 10.507 51.8906 9.9245 51.8906H7.38281C6.80126 51.8906 6.32812 51.4175 6.32812 50.8359C6.32812 50.2544 6.80126 49.7812 7.38281 49.7812H9.49219C10.0747 49.7812 10.5469 49.3091 10.5469 48.7266C10.5469 48.1441 10.0747 47.6719 9.49219 47.6719C8.01668 47.6719 6.74895 47.6719 5.27344 47.6719C4.69188 47.6719 4.21875 47.1987 4.21875 46.6172C4.21875 46.0356 4.69188 45.5625 5.27344 45.5625H9.49219C10.0747 45.5625 10.5469 45.0903 10.5469 44.5078C10.5469 43.9253 10.0747 43.4531 9.49219 43.4531C8.53242 43.4531 4.82752 43.4531 3.16406 43.4531C2.58251 43.4531 2.10938 42.98 2.10938 42.3984C2.10938 41.8169 2.58251 41.3438 3.16406 41.3438H9.49219C10.0747 41.3438 10.5469 40.8716 10.5469 40.2891C10.5469 39.7066 10.0747 39.2344 9.49219 39.2344H5.27344C4.69188 39.2344 4.21875 38.7612 4.21875 38.1797C4.21875 37.5981 4.69188 37.125 5.27344 37.125H15.8203C16.4028 37.125 16.875 36.6528 16.875 36.0703V35.0156H19.5328C22.0544 35.0156 24.3111 36.4076 25.4223 38.6483C25.6004 39.0073 25.9665 39.2344 26.3672 39.2344H35.0156V48.7266C35.0156 49.0963 35.08 49.4511 35.197 49.7812H28.4766C28.3128 49.7812 28.1513 49.8193 28.0049 49.8926L26.8276 50.4812C24.9639 51.4033 22.901 51.8906 20.8617 51.8906H19.3959C18.8134 51.8906 18.3412 52.3628 18.3412 52.9453C18.3412 53.5278 18.8134 54 19.3959 54H20.8617C23.2237 54 25.61 53.437 27.767 52.3699L28.7256 51.8906H38.1797C38.5914 51.8906 38.9847 51.8107 39.3459 51.6669C39.7119 53.0096 40.9414 54 42.3984 54C43.8555 54 45.085 53.0096 45.451 51.6669C45.8122 51.8107 46.2054 51.8906 46.6172 51.8906C48.0742 51.8906 49.3038 50.9003 49.6698 49.5576C50.031 49.7013 50.4242 49.7812 50.8359 49.7812C52.5806 49.7812 54 48.3619 54 46.6172V33.9609C54 33.8006 53.9632 33.6494 53.8993 33.5133C53.6938 31.7318 53.176 29.9716 52.3699 28.3424L51.8906 27.3839V15.8203C51.8906 15.4086 51.8107 15.0153 51.6669 14.6541C53.0098 14.2882 54 13.0587 54 11.6016ZM14.7656 35.0156H5.27344C4.90366 35.0156 4.54887 35.08 4.21875 35.197V26.3672C4.21875 26.2035 4.18068 26.042 4.10738 25.8955C3.86764 25.2832 2.10938 22.6978 2.10938 18.7523V7.38281C2.10938 6.80126 2.58251 6.32812 3.16406 6.32812C3.74562 6.32812 4.21875 6.80126 4.21875 7.38281V9.49219C4.21875 10.0747 4.69093 10.5469 5.27344 10.5469C5.85594 10.5469 6.32812 10.0747 6.32812 9.49219V5.27344C6.32812 4.69188 6.80126 4.21875 7.38281 4.21875C7.96437 4.21875 8.4375 4.69188 8.4375 5.27344V9.49219C8.4375 10.0747 8.90968 10.5469 9.49219 10.5469C10.0747 10.5469 10.5469 10.0747 10.5469 9.49219C10.5469 8.53242 10.5469 4.82752 10.5469 3.16406C10.5469 2.58251 11.02 2.10938 11.6016 2.10938C12.1831 2.10938 12.6562 2.58251 12.6562 3.16406V9.49219C12.6562 10.0747 13.1284 10.5469 13.7109 10.5469C14.2934 10.5469 14.7656 10.0747 14.7656 9.49219V5.27344C14.7656 4.69188 15.2388 4.21875 15.8203 4.21875C16.4019 4.21875 16.875 4.69188 16.875 5.27344V15.8203C16.875 16.4028 17.3472 16.875 17.9297 16.875H18.9844V19.5328C18.9844 22.0161 17.5584 24.3278 15.3517 25.4223C14.9927 25.6004 14.7656 25.9665 14.7656 26.3672V35.0156ZM19.5328 32.9062H16.875V26.9932C19.4934 25.4372 21.0938 22.636 21.0938 19.5328V16.875H27.0069C28.5628 19.4934 31.3639 21.0938 34.4672 21.0938H37.125V27.0068C34.5066 28.5628 32.9062 31.3639 32.9062 34.4672V37.125H26.9932C25.4372 34.5067 22.6361 32.9062 19.5328 32.9062ZM51.8906 46.6172C51.8906 47.1987 51.4175 47.6719 50.8359 47.6719C50.2544 47.6719 49.7812 47.1987 49.7812 46.6172V44.5078C49.7812 43.9253 49.309 43.4531 48.7266 43.4531C48.1442 43.4531 47.6719 43.9253 47.6719 44.5078V48.7266C47.6719 49.3081 47.1987 49.7812 46.6172 49.7812C46.0356 49.7812 45.5625 49.3081 45.5625 48.7266V44.5078C45.5625 43.9253 45.0902 43.4531 44.5078 43.4531C43.9254 43.4531 43.4531 43.9253 43.4531 44.5078V50.8359C43.4531 51.4175 42.98 51.8906 42.3984 51.8906C41.8169 51.8906 41.3438 51.4175 41.3438 50.8359V44.5078C41.3438 43.9253 40.8715 43.4531 40.2891 43.4531C39.7067 43.4531 39.2344 43.9253 39.2344 44.5078V48.7266C39.2344 49.3081 38.7612 49.7812 38.1797 49.7812C37.5981 49.7812 37.125 49.3081 37.125 48.7266V38.1797C37.125 37.5972 36.6527 37.125 36.0703 37.125H35.0156V34.4672C35.0156 31.9456 36.4076 29.6889 38.6483 28.5777C39.0073 28.3997 39.2344 28.0336 39.2344 27.6328V18.9844H48.7266C49.0963 18.9844 49.4511 18.92 49.7812 18.803V27.6328C49.7812 27.7965 49.8193 27.958 49.8926 28.1045L50.4812 29.2818C51.4033 31.1455 51.8906 33.2084 51.8906 35.2477V46.6172ZM50.8359 12.6562H44.5078C43.9254 12.6562 43.4531 13.1284 43.4531 13.7109C43.4531 14.2934 43.9254 14.7656 44.5078 14.7656H48.7266C49.3081 14.7656 49.7812 15.2388 49.7812 15.8203C49.7812 16.4019 49.3081 16.875 48.7266 16.875H38.1797C37.5973 16.875 37.125 17.3472 37.125 17.9297V18.9844H34.4672C31.9838 18.9844 29.6721 17.5584 28.5777 15.3517C28.3997 14.9928 28.0336 14.7656 27.6328 14.7656H18.9844V5.27344C18.9844 4.90366 18.92 4.54887 18.803 4.21875H27.6328C27.7966 4.21875 27.9581 4.18068 28.1046 4.10738C28.7162 3.86807 31.3021 2.10938 35.2477 2.10938H46.6172C47.1987 2.10938 47.6719 2.58251 47.6719 3.16406C47.6719 3.74562 47.1987 4.21875 46.6172 4.21875H44.5078C43.9254 4.21875 43.4531 4.69093 43.4531 5.27344C43.4531 5.85594 43.9254 6.32812 44.5078 6.32812H48.7266C49.3081 6.32812 49.7812 6.80126 49.7812 7.38281C49.7812 7.96437 49.3081 8.4375 48.7266 8.4375H44.5078C43.9254 8.4375 43.4531 8.90968 43.4531 9.49219C43.4531 10.0747 43.9254 10.5469 44.5078 10.5469H50.8359C51.4175 10.5469 51.8906 11.02 51.8906 11.6016C51.8906 12.1831 51.4175 12.6562 50.8359 12.6562Z" fill="#0A7ABF"/>
<path d="M14.7656 53.6836C15.3481 53.6836 15.8203 53.2114 15.8203 52.6289C15.8203 52.0464 15.3481 51.5742 14.7656 51.5742C14.1831 51.5742 13.7109 52.0464 13.7109 52.6289C13.7109 53.2114 14.1831 53.6836 14.7656 53.6836Z" fill="#0A7ABF"/>
</svg>
