<svg width="62" height="62" viewBox="0 0 62 62" fill="none" xmlns="http://www.w3.org/2000/svg">
<g clip-path="url(#clip0)">
<path d="M0.37535 16.8902C0.564014 17.3504 1.03519 17.6552 1.53252 17.6378C2.03385 17.6204 2.47536 17.2884 2.63944 16.8165C2.80292 16.3466 2.6438 15.8065 2.26126 15.4918C1.86008 15.1617 1.27423 15.1279 0.837565 15.4096C0.352585 15.7221 0.153264 16.3572 0.37535 16.8902Z" fill="#0A7ABF"/>
<path d="M50.2616 26.1709C50.3803 25.865 50.4896 25.5598 50.5889 25.2568C51.2573 23.2175 51.5304 21.1444 51.424 18.919C51.2474 15.2325 49.5413 11.6883 46.6201 8.93928C43.8154 6.29992 40.2518 4.78613 36.8428 4.78613C31.7642 4.78613 27.7951 7.62129 25.8811 9.3114C25.7387 9.43721 25.5311 9.43988 25.3878 9.31733C23.404 7.62505 19.3473 4.78613 14.4667 4.78613C10.4338 4.78613 6.14069 6.96206 3.26266 10.4647C2.8381 10.9814 2.9127 11.7445 3.4294 12.1691C3.94623 12.5938 4.70924 12.519 5.13379 12.0023C7.56366 9.04523 11.1399 7.20812 14.4667 7.20812C18.5706 7.20812 22.0858 9.68412 23.8159 11.16C24.8686 12.058 26.4456 12.0439 27.4841 11.127C29.1415 9.66342 32.5615 7.20812 36.8427 7.20812C42.3163 7.20812 48.6805 12.266 49.0048 19.0348C49.0968 20.9601 48.862 22.7487 48.2872 24.5026C48.151 24.9179 47.9977 25.3275 47.8232 25.7414C47.3368 25.6952 46.8441 25.6716 46.3459 25.6716C37.7144 25.6716 30.692 32.7465 30.692 41.4427C30.692 41.854 30.7078 42.2616 30.7386 42.665C29.5408 43.6419 28.5673 44.4417 27.7538 45.1303C26.5253 46.1702 24.7423 46.17 23.5141 45.1295C22.4153 44.1986 20.9866 43.0345 19.4742 41.802C14.0149 37.3534 6.53812 31.2608 4.7383 28.203C3.55498 26.1926 2.84791 24.3717 2.51321 22.4724C2.47458 22.2529 2.44031 22.0297 2.41173 21.809C2.32564 21.1457 1.71823 20.6778 1.055 20.7639C0.391774 20.85 -0.0761313 21.4576 0.00996613 22.1207C0.0432668 22.3776 0.0831066 22.6374 0.128153 22.8928C0.514684 25.0859 1.31632 27.1636 2.65114 29.4313C4.67134 32.8637 12.0308 38.8606 17.9443 43.6793C19.4476 44.9043 20.8675 46.0613 21.9486 46.9773C23.0164 47.882 24.3252 48.3341 25.6344 48.3341C26.9426 48.3341 28.2511 47.8822 29.3186 46.9787C29.8624 46.5185 30.4819 46.0052 31.196 45.4193C32.9498 52.1968 39.0773 57.2138 46.3459 57.2138C54.9774 57.2138 61.9997 50.1389 61.9997 41.4427C61.9999 34.1081 57.0046 27.9267 50.2616 26.1709ZM46.3461 54.7918C39.0499 54.7918 33.114 48.8034 33.114 41.4426C33.114 34.0818 39.0499 28.0934 46.3461 28.0934C53.6423 28.0934 59.5782 34.0818 59.5782 41.4426C59.578 48.8034 53.6423 54.7918 46.3461 54.7918Z" fill="#0A7ABF"/>
<path d="M52.1463 37.2818H50.482V35.5923C50.482 34.1067 49.2788 32.8982 47.7999 32.8982H44.8923C43.4134 32.8982 42.2102 34.1067 42.2102 35.5923V37.2818H40.5459C39.067 37.2818 37.8638 38.4903 37.8638 39.9759V42.9094C37.8638 44.3949 39.067 45.6035 40.5459 45.6035H42.2102V47.2931C42.2102 48.7785 43.4134 49.9872 44.8923 49.9872H47.7999C49.2788 49.9872 50.482 48.7787 50.482 47.2931V45.6035H52.1463C53.6252 45.6035 54.8284 44.3949 54.8284 42.9094V39.9759C54.8285 38.4903 53.6252 37.2818 52.1463 37.2818ZM52.4066 42.9092C52.4066 43.0593 52.2899 43.1815 52.1464 43.1815H49.2712C48.6025 43.1815 48.0602 43.7236 48.0602 44.3924V47.293C48.0602 47.443 47.9435 47.5652 47.8 47.5652H44.8924C44.7488 47.5652 44.6322 47.4431 44.6322 47.293V44.3924C44.6322 43.7236 44.0899 43.1815 43.4212 43.1815H40.546C40.4024 43.1815 40.2858 43.0594 40.2858 42.9092V39.9758C40.2858 39.8256 40.4025 39.7035 40.546 39.7035H43.4212C44.0899 39.7035 44.6322 39.1614 44.6322 38.4926V35.5922C44.6322 35.442 44.7489 35.3199 44.8924 35.3199H47.8C47.9435 35.3199 48.0602 35.442 48.0602 35.5922V38.4926C48.0602 39.1614 48.6025 39.7035 49.2712 39.7035H52.1464C52.29 39.7035 52.4066 39.8256 52.4066 39.9758V42.9092Z" fill="#0A7ABF"/>
</g>
<defs>
<clipPath id="clip0">
<rect width="62" height="62" fill="white"/>
</clipPath>
</defs>
</svg>
